PathFileType	4	(X/Y/Z)	E-squat_0-154.trc
DataRate	CameraRate	NumFrames	NumMarkers	Units	OrigDataRate	OrigDataStartFrame	OrigNumFrames
30	30	9	22	m	30	134	154
Frame#	Time	Hip			RHip			RKnee			RAnkle			RBigToe			RSmallToe			RHeel			LHip			LKnee			LAnkle			LBigToe			LSmallToe			LHeel			Neck			Head			Nose			RShoulder			RElbow			RWrist			LShoulder			LElbow			LWrist			
		X1	Y1	Z1	X2	Y2	Z2	X3	Y3	Z3	X4	Y4	Z4	X5	Y5	Z5	X6	Y6	Z6	X7	Y7	Z7	X8	Y8	Z8	X9	Y9	Z9	X10	Y10	Z10	X11	Y11	Z11	X12	Y12	Z12	X13	Y13	Z13	X14	Y14	Z14	X15	Y15	Z15	X16	Y16	Z16	X17	Y17	Z17	X18	Y18	Z18	X19	Y19	Z19	X20	Y20	Z20	X21	Y21	Z21	X22	Y22	Z22	
134	4.466666666666667	0.5282988189536753	0.3701553292102647	-0.1303154101135034	0.440904300378925	0.31185829510856755	-0.14113431548041044	0.6728505980821473	0.009872689593935429	-0.2730730279620215	0.582001965574051	0.14534359888700008	-0.6241964638597735	0.7057106683549226	0.030222545648997335	-0.6917819261100137	0.6399145119177433	0.017445593229392344	-0.6962890647808235	0.5644229425876037	0.1973709948582532	-0.6821376727582369	0.6317919467470906	0.4040642658931793	-0.1334113756868322	0.8894059318396048	0.17849736420709636	-0.28629170601488674	0.7922139137834847	0.3184618129031385	-0.6123971299971017	0.9012257273301079	0.20222606846712352	-0.6865056914300844	0.926343856783097	0.2535461285345366	-0.6786616994956368	0.734346222699169	0.3633168803094326	-0.6701668754052299	0.8237532339927637	0.007562513336512733	0.20328156677916354	0.8965305189062985	-0.08529895754633342	0.4086403457656781	0.9166154492886184	-0.11292794474392594	0.2877475004836236	0.6709557124979751	-0.05178414747592423	0.13486647434106466	0.5243027196498942	0.0038578647327508785	-0.10804711083616605	0.5052951172009533	-0.014009590933924438	-0.3492770068746518	0.9199481583287424	0.13982082756590528	0.15072791450284123	0.885015211099476	0.3238822856353592	-0.1098491409348788	0.9303499215411669	0.3510667510657112	-0.3483247878177462
135	4.5	0.5306978273748485	0.37289270250280265	-0.13197402279931547	0.4462244206189678	0.31231376654052734	-0.14302445340480177	0.6724983465733196	0.010718265727259592	-0.27031820108337373	0.5826824519191203	0.1448190823833765	-0.6234326213792935	0.7101661601611873	0.03084188175526601	-0.6887870618978986	0.6431767197757532	0.015978480232951443	-0.69491037780569	0.563181579527923	0.19860291131758595	-0.6819091208020647	0.6329890598177222	0.4067204453254789	-0.13487600790712462	0.8883995963132791	0.17862746343810343	-0.285445381447453	0.7922212093047958	0.3170659451243466	-0.610102764991103	0.9002610171237277	0.20217314812616038	-0.687796399771506	0.9251935082922055	0.25308938865251096	-0.676354388887011	0.7331161125473568	0.3639750259930129	-0.6667019065190374	0.8251074767985188	0.006583717233829015	0.1969876616989815	0.8966618659939759	-0.08531500341536466	0.40431611279441204	0.9190087787083296	-0.11502845686741817	0.282738890202773	0.6732369970872155	-0.05257968672928353	0.1308293636408044	0.5280090989573173	0.002322648773784484	-0.1115588147533619	0.5063729485884574	-0.013299611579158464	-0.35393833347615	0.9164265868276009	0.1431752183876755	0.14793360997444036	0.8821235910509949	0.3256535869558477	-0.11052854030260521	0.9261886299620954	0.3511073631310325	-0.336636586850837
136	4.533333333333333	0.5268706543670956	0.376826223063577	-0.12885243471921817	0.4404191245442114	0.3136265912688014	-0.13790653297021824	0.6700774698456761	0.009165672240009042	-0.26604070441972794	0.5819001890498611	0.14729804440969677	-0.623480965500064	0.7059238621278741	0.03162457996096984	-0.6898518687203077	0.6392688384041111	0.016708952499546553	-0.6959112687908666	0.5623142375322737	0.19615670368663696	-0.680256759142569	0.6199146543959273	0.42172899760614335	-0.13015382845398027	0.8823879118623322	0.17895968232254775	-0.2797201928329601	0.7804556894469417	0.32995778359349426	-0.6123245622923812	0.8947552745901898	0.20771654511841284	-0.6867408660257862	0.9197158670725853	0.25868507214618564	-0.6787152582101083	0.7270234982894273	0.37116141765797445	-0.6677652710518176	0.819766417342894	0.012003821936680911	0.2036628225049664	0.8975107261285461	-0.09091288263870356	0.4076621012063299	0.9156077789362642	-0.1115041715301776	0.28866215436347903	0.6731102295037035	-0.056056185040242214	0.13318882862875653	0.5261931683042624	0.005069692231203924	-0.1030687837503818	0.5077488481138107	-0.012545904578133578	-0.3432830522785366	0.9081676309042628	0.1464172264423395	0.15467327592007446	0.8789664372584031	0.32702650620210216	-0.09756714083525828	0.9220273383830238	0.3511479751963538	-0.3249483858839278
137	4.566666666666666	0.5314925012979892	0.3710851561335629	-0.12153211605018913	0.4448582414453919	0.3081615982761029	-0.13105686851143564	0.6704528306621835	0.012161598690410119	-0.26353728270661225	0.5822194252358144	0.14632250040358208	-0.6251745002546545	0.7076264073118411	0.030268643910743142	-0.6884129160818225	0.640300840575676	0.015396904817947948	-0.696159815066378	0.5644044084838971	0.19743082511170892	-0.6849457261175677	0.6292669601178539	0.4100974350360133	-0.1240302126449021	0.8810189543832416	0.17538369224641956	-0.276910995700423	0.7925996271956398	0.31520123560408914	-0.6090780103938603	0.9003388731785454	0.2004817933517385	-0.6865996889358101	0.9230349168849402	0.25414865272947484	-0.6754014287262545	0.7341340994778934	0.36218266828625556	-0.6674496639057346	0.8182228517856199	0.008083757516797825	0.21707860183005898	0.8895415909730258	-0.08776081383780193	0.4212092991459632	0.9124880143357115	-0.10909486171569666	0.30349418555235164	0.6644945386591893	-0.05313580383417228	0.1442570730026497	0.5242153915776462	0.00592110766709871	-0.09350036996875069	0.5055500514456656	-0.011746118317393457	-0.3343351586304738	0.9064208312740473	0.14723468524528852	0.17037533200044527	0.8763960571295109	0.3236044007616967	-0.08320890231987213	0.9178660468039522	0.3511885872616751	-0.3132601849170187
138	4.6	0.5285599604452101	0.3658786559550562	-0.10771188496094496	0.4429912564242946	0.3049356720585407	-0.11405650857761171	0.6691454703494731	0.01784031795112519	-0.2716916280363299	0.582932128538724	0.14630919006027202	-0.6263136448842903	0.7092819601999796	0.028610674909151052	-0.6884135628043035	0.6413605652000768	0.018188902685203054	-0.6970097746322383	0.5624460035412593	0.2006611705287374	-0.6833409769386454	0.6325096406083223	0.4051958799271528	-0.10381193996634556	0.8765716814698604	0.18154462310633274	-0.27615070810947256	0.7910820568063494	0.31752991986702256	-0.60719290602512	0.9028139440110661	0.20364168588278586	-0.6850660016172324	0.9246741999368214	0.25319817465369754	-0.6759043937586885	0.7339770204215267	0.3623767363439302	-0.6614772744708112	0.804017456656323	0.01859891756528951	0.24158267034396766	0.8847761775783463	-0.08835919376271205	0.44788312083667875	0.9014450676109409	-0.10272495899540446	0.33091005859789735	0.6604011327509798	-0.04711765762940726	0.17352869418697103	0.5218227919135187	0.010638076370509593	-0.07122617871167009	0.503307113903733	-0.005087492972605899	-0.31253017784962783	0.900404655002839	0.14778013710760246	0.19431420745931485	0.8704793666782524	0.32133715301642196	-0.06533776440244494	0.9137047552248807	0.3512291993269964	-0.30157198395010953
139	4.633333333333334	0.5296818826075048	0.36587837352604796	-0.08906958144342134	0.4397544341867326	0.30652935156680083	-0.09637933591700337	0.6717415054498436	0.023089332601512778	-0.26995557744028525	0.5835498321363053	0.1510207902298528	-0.6307392567892794	0.7073783632212274	0.0293139709638112	-0.6904508834650088	0.6406104411760354	0.016571102203941236	-0.6971839454301306	0.5635410687741003	0.19917982418427796	-0.6860802814815514	0.6352834770670348	0.3997784610342073	-0.08578500643259719	0.8726060321466154	0.1811621877598426	-0.27213373591310464	0.8003630557477996	0.308710158962333	-0.6077241940389053	0.9094009140871911	0.1968455042040271	-0.6840052519735774	0.9272936151628526	0.2478189805757148	-0.6743651779137891	0.7454726124478815	0.35480078479423455	-0.662130329876122	0.8018751861527742	0.02054710070417164	0.2841743460168625	0.8698065831680046	-0.0764166079167908	0.4881661681291187	0.9013697283110569	-0.0976011747543088	0.3718132025508092	0.6501785942823145	-0.04603448021951842	0.20945652335182657	0.5199556945792703	0.01618811471590829	-0.04071274910397179	0.4992479343739524	5.075569078318698e-05	-0.2787760438230981	0.9015891029518881	0.14527849436738183	0.22672639943091086	0.8705550810723505	0.3154789239734905	-0.025254302437638106	0.9021338590362097	0.35075282813200487	-0.26374971906185274
140	4.666666666666667	0.5320517877317448	0.35934128129517856	-0.07256319230893779	0.44129112194143105	0.300253702428807	-0.07683747004224131	0.6677489533405818	0.026570153351010765	-0.2675421297295865	0.5786895706525671	0.15069871787069336	-0.6315050205060522	0.7064468962204993	0.030661826493940177	-0.6908191702267354	0.6382633307448687	0.021882539148493703	-0.7005741124149568	0.5602684159030821	0.20275480301914556	-0.6875987654299062	0.6387845953542771	0.3921134648125142	-0.06561837564575868	0.8704896013132759	0.1825071976348369	-0.266457547478417	0.79615780037291	0.30842055206140306	-0.6051644963803741	0.9046738031677096	0.19650395342491822	-0.6871808949691999	0.9270654602664393	0.24649990518515705	-0.6766187159837918	0.7444095267471165	0.35516053441334594	-0.6567921990111439	0.7994176145685278	0.01817435095402455	0.31496217588786257	0.8590276385816997	-0.07101907204479924	0.5221849287825931	0.8887854734580756	-0.09922063897911121	0.40286397803739493	0.6447769303971932	-0.04027963361588473	0.23741351550607936	0.5199008865527228	0.01836742460985509	-0.01309100145334501	0.49807975028256296	0.0013293219272997637	-0.2512057459372353	0.9080109778108632	0.1320485995410103	0.2521757548275552	0.8685464815156566	0.30523496549794943	0.0051687379582084445	0.8972757946911248	0.3529474416763175	-0.23731501347508008
141	4.7	0.5452775757594164	0.342398454025298	-0.03619330386089273	0.44695383983759135	0.29403552765147967	-0.03920976550968317	0.6455928169259394	0.051005019189280756	-0.2641088145199437	0.5756559637599398	0.1534811985426038	-0.6334107993665425	0.7005289845662366	0.03249270574839476	-0.6974176048440187	0.6376376228203449	0.020782985470997616	-0.702695768689634	0.557537738984215	0.20191536251216968	-0.6905291079283403	0.6569043192405645	0.36584180571176356	-0.027753933934197027	0.8713546453205091	0.18592967067134933	-0.26583948372767424	0.7968590022258619	0.3125654922208913	-0.6093153735661198	0.901032301301421	0.20071140107279264	-0.6899953567311508	0.9234369279398403	0.25233770147740175	-0.680768433158213	0.7487198543941763	0.34914703740633724	-0.6578812659703445	0.7817578533056833	0.03237034246366187	0.3821000512469675	0.8515838998180497	-0.06302688306687824	0.5885903244302227	0.8797584319779291	-0.08496461234273076	0.4729791329721923	0.6331963421851673	-0.03861324396786857	0.297693217298904	0.5174880202198888	0.019347994210497512	0.049512631777375825	0.49173614860325693	0.00425404065682577	-0.19715982905456253	0.8846226815619718	0.15443529340166845	0.31662404954256756	0.8612059519902857	0.3064123475979574	0.06525474186882477	0.8912263247415054	0.3431983793166052	-0.18063239373947132
142	4.733333333333333	0.5506919710707348	0.32891900280558156	-0.014440791708152807	0.45243324016970593	0.28422626389109656	-0.019009315426262368	0.64329119166804	0.05324107577572954	-0.25662122794266584	0.5754813417637469	0.15023856762856877	-0.632198780798381	0.7043943182299575	0.030722507132843777	-0.6991089766199831	0.640100169245918	0.020901570506953127	-0.7067616412785985	0.5550873534475672	0.20109134276930307	-0.6923538468511917	0.666039648596867	0.35040936851585475	-0.008456519315913614	0.8693121290787246	0.18027077802136401	-0.25683893371272976	0.7991382458263894	0.3038110188196105	-0.6073493838743864	0.8980210350300833	0.19871331202175535	-0.6891267047367732	0.9274951215476835	0.24659839515013168	-0.680744221199053	0.753717444662499	0.34178711904211617	-0.6583080914213417	0.7742540011163552	0.032229578051404986	0.417561068992406	0.8350380408602638	-0.053899308549811835	0.6244064632415837	0.867896168123181	-0.07489045531939897	0.5037427154151686	0.6197624697397306	-0.030990310788204516	0.33390275075438774	0.5081356536829966	0.019245782571743236	0.07957163838717717	0.4896945279859796	0.006031941955531974	-0.1653597869171933	0.8875458096712993	0.1442879856167587	0.3528922533266933	0.8673776236299575	0.2916799701746117	0.09942600566007373	0.889773790898413	0.3405165177481512	-0.1456239668039151
